<?xml version="1.0" encoding="UTF-8"?>
<svg id="Calque_2" data-name="Calque 2" xmlns="http://www.w3.org/2000/svg" viewBox="0 0 370.22 226.12">
  <defs>
    <style>
      .cls-1 {
        fill: none;
      }

      .cls-2 {
        fill: #a2a1a0;
      }

      .cls-3 {
        fill: #cac9c9;
      }

      .cls-4 {
        fill: #424141;
      }
    </style>
  </defs>
  <g id="Calque_1-2" data-name="Calque 1">
    <g>
      <rect class="cls-1" width="370.22" height="226.12"/>
      <g>
        <g>
          <g>
            <path class="cls-2" d="M209.68,147.93c-2.48,2.46-3.88,5.8-3.88,9.3v51.2h12.15v-68.65l-8.27,8.16Z"/>
            <path class="cls-2" d="M238.63,141.83c-1.34-1.31-2.95-1.99-4.87-1.99s-3.54.68-4.87,1.99c-1.32,1.34-1.99,2.92-1.99,4.77s.67,3.54,1.99,4.87c1.34,1.32,2.95,1.99,4.87,1.99s3.53-.67,4.87-1.99c1.32-1.34,1.99-2.95,1.99-4.87s-.67-3.44-1.99-4.77ZM227.91,157.82v50.6h12.15v-50.6h-12.15Z"/>
            <path class="cls-2" d="M295.54,170.61c-2.28-3.83-5.37-6.88-9.27-9.13-3.9-2.25-8.06-3.38-12.51-3.38-5.43,0-10.31,1.6-14.64,4.82v-23.19l-6.53,6.46c-2.49,2.46-3.9,5.82-3.9,9.32l-.04,28.45c0,4.44,1.14,8.49,3.42,12.14,2.28,3.77,5.36,6.75,9.21,8.94,3.83,2.19,8.21,3.31,12.61,3.3,4.52-.03,8.67-1.17,12.47-3.42,3.83-2.23,6.88-5.27,9.13-9.13,2.25-3.87,3.38-8.06,3.38-12.57s-1.11-8.7-3.34-12.6ZM285.89,190.17c-1.29,2.16-3.01,3.86-5.14,5.09-2.13,1.24-4.47,1.85-7,1.85s-4.79-.61-6.94-1.85c-2.17-1.24-3.87-2.92-5.09-5.05-1.24-2.13-1.86-4.47-1.86-7s.63-4.87,1.86-7.04c1.22-2.16,2.91-3.86,5.05-5.09,2.13-1.24,4.45-1.85,6.99-1.85s4.89.61,7.04,1.85c2.17,1.29,3.87,3.02,5.09,5.15,1.24,2.13,1.86,4.45,1.86,6.99s-.63,4.79-1.86,6.96Z"/>
            <path class="cls-2" d="M330.46,157.17c-4.44,0-8.57,1.09-12.4,3.24-3.95,2.23-7.06,5.21-9.31,8.95-2.25,3.74-3.38,7.79-3.38,12.19l.08,26.87h10.84l-.19-25.21c0-2.71.7-5.15,2.06-7.32,1.29-2.21,3.06-3.99,5.33-5.32,2.25-1.34,4.66-2,7.25-2,.31,0,1.02.07,2.14.19v-11.4l-2.42-.19Z"/>
            <path class="cls-2" d="M351.1,141.83c-1.34-1.31-2.95-1.99-4.87-1.99s-3.53.68-4.86,1.99c-1.34,1.34-2,2.92-2,4.77s.67,3.54,2,4.87c1.32,1.32,2.95,1.99,4.86,1.99s3.54-.67,4.87-1.99c1.32-1.34,1.99-2.95,1.99-4.87s-.67-3.44-1.99-4.77ZM340.39,157.82v50.6h12.14v-50.6h-12.14Z"/>
            <path class="cls-2" d="M197.52,176.29c-1.13-4.29-3.3-8.02-6.49-11.2l-7.93,7.93c1.8,1.78,3.02,3.86,3.67,6.22.65,2.35.65,4.73,0,7.14-.65,2.41-1.88,4.5-3.67,6.29-1.78,1.8-3.87,3.01-6.25,3.63-2.38.64-4.77.63-7.18-.03-2.39-.65-4.47-1.85-6.22-3.6l-7.93,7.93c3.19,3.19,6.95,5.34,11.27,6.49,4.33,1.13,8.66,1.11,12.97-.07,4.29-1.04,8.04-3.19,11.27-6.42,3.19-3.19,5.36-6.94,6.49-11.27,1.14-4.33,1.14-8.67,0-13.04Z"/>
          </g>
          <g>
            <path class="cls-4" d="M93.76,168.66c-2.66-3.9-5.87-6.68-9.63-8.39-3.77-1.7-7.42-2.55-10.94-2.55-5.19,0-9.95,1.49-14.27,4.45-4.33,2.96-7.42,6.86-9.27,11.68-1.11,2.96-1.67,5.93-1.67,8.89,0,5.07,1.47,9.8,4.44,14.18,2.66,3.95,5.86,6.78,9.6,8.48,3.73,1.7,7.39,2.55,10.98,2.55,4.26,0,8.27-1.02,12.04-3.05,3.77-2.05,6.81-4.83,9.09-8.35l-10.1-3.88c-1.36,1.54-3.01,2.73-4.95,3.56-1.95.84-3.97,1.25-6.07,1.25-1.87,0-3.59-.31-5.19-.93-1.98-.74-3.72-1.86-5.19-3.38-1.49-1.52-2.6-3.28-3.34-5.33l38.37-1.02v-.1l.18.1c.18-1.29.28-2.63.28-3.98,0-5.07-1.45-9.8-4.36-14.18ZM59.21,178.21l.18-.56c1.11-2.91,2.94-5.19,5.47-6.86,2.53-1.67,5.3-2.51,8.34-2.51,1.85,0,3.58.32,5.19.93,1.98.74,3.69,1.84,5.14,3.28,1.46,1.46,2.52,3.15,3.2,5.05l-27.51.65Z"/>
            <path class="cls-4" d="M118.41,197.39l24.19-31.87v-7.24h-38.36v10.76h21.95l-23.44,30.76v8.63h40.78v-11.04h-25.12Z"/>
            <path class="cls-4" d="M155.52,165.08c-3.19,3.19-5.35,6.95-6.49,11.27-1.14,4.32-1.14,8.63,0,12.91,1.09,4.32,3.25,8.1,6.49,11.34l7.93-7.93c-1.79-1.79-3-3.88-3.64-6.26-.63-2.38-.62-4.77.03-7.18.66-2.4,1.86-4.48,3.6-6.23s3.87-3.01,6.23-3.67c.92-.26,1.85-.4,2.76-.47,1.25-.07,2.49.02,3.75.32.22.04.43.1.63.15,2.4.66,4.5,1.88,6.29,3.67l7.93-7.93c-1.86-1.86-3.93-3.36-6.23-4.52-1.56-.82-3.23-1.46-5.01-1.93-2.48-.67-4.96-.96-7.43-.87-1.87.05-3.74.31-5.58.78-4.32,1.18-8.08,3.36-11.27,6.55Z"/>
            <path class="cls-4" d="M74.47,139.26c-3.17-.01-6.23,1.23-8.47,3.49l-6.23,6.23h21.62c1.82.01,3.55-.7,4.84-1.98l7.67-7.67-19.42-.07Z"/>
            <path class="cls-4" d="M45,157.35l-.9-.07-1.29-.11c-4.45,0-8.59,1.09-12.41,3.24-3.95,2.23-7.06,5.21-9.31,8.95-1.2,1.99-2.09,4.08-2.63,6.25-.5,1.91-.75,3.88-.75,5.94v2.06l.08,24.81h10.84l-.18-25.21c0-2.71.68-5.15,2.03-7.32,1.31-2.21,3.08-3.99,5.33-5.32,2.25-1.34,4.69-2,7.28-2,.31,0,1.02.07,2.13.19v-11.4h-.21Z"/>
          </g>
        </g>
        <g>
          <g>
            <path class="cls-2" d="M170.05,74.73c6.35,7.58,9.8,22.67,9.02,32.88-12.43,11.25-29.95,14.91-46.25,11.69,26.64-1.32,36.26-27.2,37.24-44.57Z"/>
            <path class="cls-2" d="M240.53,53.1h-12.32c-14,.06-26.64,9.16-31.89,22.1,0-.05.02-.08.02-.12,1.37-11.03-.92-22.65-6.54-32.24,10.77-6.22,23.61-4.81,33.91,7.79.29.38.73.63,1.21.69l15.62,1.79Z"/>
          </g>
          <path class="cls-4" d="M196.72,68.7c.09,14.85-6.52,29.13-17.65,39,.78-10.23-2.64-25.36-9.02-32.96,1.53-11.85,8.89-26.06,19.74-31.91,4.55,7.81,6.92,16.79,6.92,25.87Z"/>
          <path class="cls-3" d="M189.79,42.83c-11.24,6.34-17.93,19.54-19.74,31.91-6.56-7.24-12.85-12.69-17.07-16.29-9.11-7.29-13.21-13.04-15.08-24.4-.69-3.73-1.63-11.82-2.37-16.26,21.28-4.06,43.56,6.23,54.26,25.05Z"/>
        </g>
      </g>
    </g>
  </g>
</svg>