<?xml version="1.0" encoding="UTF-8"?>
<svg id="Calque_2" data-name="Calque 2" xmlns="http://www.w3.org/2000/svg" viewBox="0 0 432.82 128.97">
  <defs>
    <style>
      .cls-1 {
        fill: none;
      }

      .cls-2 {
        fill: #fff;
      }
    </style>
  </defs>
  <g id="Calque_1-2" data-name="Calque 1">
    <g>
      <rect class="cls-1" width="432.82" height="128.97"/>
      <g>
        <g>
          <path class="cls-2" d="M48.31,74.56c7.31,12.26,5.47,28.07,5.47,28.07-11.03,8.19-25.47,10.7-38.99,8.04,22.06-1.1,31.33-20.66,33.52-36.11Z"/>
          <path class="cls-2" d="M72.72,70.42s.01-.05.02-.08v.04s-.01.03-.02.04Z"/>
          <path class="cls-2" d="M113.05,50.26h-11.23c-10.38.04-19.94,5.54-25.74,13.93-.05-8.72-2.35-17.23-6.63-24.65,9.23-4.01,19.7-2.01,28.25,8.46.27.35.67.57,1.11.63l14.24,1.63Z"/>
        </g>
        <g>
          <path class="cls-2" d="M271.92,49.19c-2.49,2.47-3.89,5.81-3.89,9.31v51.29h12.17V41.02l-8.28,8.17Z"/>
          <path class="cls-2" d="M300.91,43.08c-1.34-1.31-2.95-1.99-4.88-1.99s-3.54.68-4.88,1.99c-1.32,1.34-1.99,2.93-1.99,4.79s.67,3.54,1.99,4.88c1.34,1.32,2.96,1.99,4.88,1.99s3.54-.67,4.88-1.99c1.33-1.34,2-2.96,2-4.88s-.67-3.45-2-4.79ZM290.18,59.1v50.69h12.17v-50.69h-12.17Z"/>
          <path class="cls-2" d="M357.92,71.91c-2.29-3.83-5.39-6.88-9.29-9.14-3.9-2.26-8.07-3.39-12.53-3.39-5.44,0-10.33,1.6-14.67,4.82v-23.22l-6.54,6.47c-2.49,2.47-3.9,5.82-3.9,9.34l-.04,28.49c0,4.45,1.14,8.51,3.43,12.16,2.28,3.78,5.37,6.76,9.23,8.95,3.83,2.19,8.22,3.32,12.63,3.3,4.53-.03,8.68-1.17,12.49-3.43,3.83-2.23,6.88-5.28,9.14-9.14,2.26-3.88,3.39-8.07,3.39-12.59s-1.11-8.71-3.34-12.62ZM348.25,91.5c-1.29,2.16-3.01,3.86-5.14,5.1s-4.47,1.86-7.01,1.86-4.8-.62-6.96-1.86c-2.17-1.24-3.87-2.93-5.1-5.06-1.24-2.13-1.87-4.47-1.87-7.01s.63-4.88,1.87-7.05c1.23-2.17,2.91-3.87,5.06-5.11,2.13-1.24,4.46-1.85,7-1.85s4.89.61,7.05,1.85c2.18,1.3,3.88,3.03,5.1,5.16,1.24,2.13,1.87,4.46,1.87,7s-.63,4.8-1.87,6.97Z"/>
          <path class="cls-2" d="M392.89,58.45c-4.45,0-8.59,1.08-12.42,3.24-3.96,2.24-7.07,5.22-9.33,8.97-2.25,3.75-3.38,7.81-3.38,12.21l.08,26.92h10.86l-.19-25.26c0-2.72.69-5.16,2.06-7.33,1.29-2.22,3.07-4,5.34-5.33,2.26-1.34,4.67-2.01,7.26-2.01.31,0,1.02.07,2.15.2v-11.42l-2.43-.19Z"/>
          <path class="cls-2" d="M413.57,43.08c-1.34-1.31-2.96-1.99-4.88-1.99s-3.54.68-4.87,1.99c-1.34,1.34-2.01,2.93-2.01,4.79s.67,3.54,2.01,4.88c1.33,1.32,2.96,1.99,4.87,1.99s3.54-.67,4.88-1.99c1.32-1.34,1.99-2.96,1.99-4.88s-.67-3.45-1.99-4.79ZM402.85,59.1v50.69h12.15v-50.69h-12.15Z"/>
          <path class="cls-2" d="M259.73,77.6c-.99-3.75-2.77-7.08-5.35-9.99l-7.97,7.97c1.2,1.48,2.05,3.14,2.56,4.98.65,2.35.65,4.74,0,7.15-.66,2.41-1.88,4.5-3.68,6.3-1.79,1.8-3.88,3.01-6.26,3.64-2.38.64-4.78.63-7.19-.03-1.85-.51-3.5-1.33-4.97-2.5l-7.98,7.99c2.91,2.56,6.27,4.34,10.06,5.34,4.34,1.13,8.67,1.12,12.99-.07,4.3-1.04,8.06-3.19,11.29-6.42s5.37-6.96,6.5-11.3c1.14-4.33,1.14-8.68,0-13.06Z"/>
        </g>
        <g>
          <path class="cls-2" d="M155.8,69.96c-2.66-3.9-5.88-6.69-9.64-8.4-3.78-1.71-7.43-2.56-10.96-2.56-5.2,0-9.97,1.5-14.29,4.47-4.33,2.96-7.43,6.87-9.28,11.69-1.12,2.97-1.68,5.94-1.68,8.91,0,5.07,1.48,9.81,4.45,14.21,2.66,3.95,5.87,6.78,9.62,8.48,3.74,1.71,7.4,2.56,11,2.56,4.26,0,8.28-1.02,12.06-3.06,3.77-2.05,6.81-4.83,9.1-8.36l-10.12-3.89c-1.37,1.55-3.01,2.73-4.96,3.57-1.95.83-3.98,1.25-6.08,1.25-1.87,0-3.6-.3-5.2-.93-1.98-.74-3.72-1.87-5.2-3.39-1.49-1.52-2.61-3.29-3.35-5.34l38.44-1.02v-.09l.18.09c.18-1.29.28-2.63.28-3.98,0-5.08-1.45-9.82-4.37-14.21ZM121.19,79.53l.18-.56c1.12-2.92,2.94-5.2,5.48-6.88,2.54-1.67,5.31-2.5,8.35-2.5,1.85,0,3.58.32,5.2.93,1.98.74,3.69,1.84,5.14,3.29,1.47,1.46,2.53,3.15,3.21,5.06l-27.56.66Z"/>
          <path class="cls-2" d="M180.49,98.74l24.23-31.93v-7.25h-38.42v10.78h21.99l-23.48,30.81v8.64h40.85v-11.05h-25.17Z"/>
          <path class="cls-2" d="M252.28,65.47l-7.96,7.96c-1.57-1.32-3.34-2.25-5.33-2.79-.2-.05-.41-.11-.63-.15-1.26-.3-2.51-.38-3.75-.32-.92.07-1.85.21-2.77.47-2.36.66-4.44,1.88-6.24,3.68s-2.95,3.83-3.61,6.23c-.65,2.41-.66,4.81-.03,7.19.53,1.97,1.44,3.73,2.76,5.29l-7.96,7.96c-2.75-3.02-4.61-6.48-5.6-10.39-1.13-4.29-1.13-8.6,0-12.93,1.14-4.34,3.31-8.1,6.5-11.29,3.2-3.2,6.96-5.39,11.29-6.57,1.85-.47,3.72-.72,5.59-.77,2.47-.09,4.96.2,7.44.87,1.78.47,3.46,1.12,5.02,1.94,1.91.96,3.67,2.17,5.28,3.62Z"/>
          <path class="cls-2" d="M136.48,40.51c-3.17-.01-6.24,1.24-8.49,3.49l-6.24,6.25h21.66c1.82.01,3.56-.7,4.85-1.99l7.68-7.68-19.46-.07Z"/>
          <path class="cls-2" d="M106.95,58.63l-.91-.07-1.3-.11c-4.46,0-8.6,1.09-12.43,3.25-3.96,2.23-7.07,5.21-9.33,8.96-1.2,1.99-2.09,4.08-2.63,6.26-.5,1.91-.75,3.89-.75,5.95v2.06l.08,24.85h10.86l-.18-25.26c0-2.72.68-5.16,2.04-7.33,1.31-2.22,3.08-4,5.34-5.33,2.26-1.34,4.7-2.01,7.29-2.01.31,0,1.02.07,2.13.2v-11.42h-.21Z"/>
        </g>
        <g>
          <path class="cls-2" d="M73.09,64.49c.09,13.49-5.95,26.59-16.11,35.58,2.46-40.19-32.83-38.24-37.55-67.19-.63-3.41-1.49-10.79-2.16-14.84,27.91-5.89,56.55,17.77,55.82,46.45Z"/>
          <path class="cls-2" d="M50.35,72.18c.39.6.77,1.23,1.12,1.88-.35-.66-.72-1.28-1.12-1.88ZM50.35,72.18c.39.6.77,1.23,1.12,1.88-.35-.66-.72-1.28-1.12-1.88Z"/>
        </g>
      </g>
    </g>
  </g>
</svg>