<?xml version="1.0" encoding="UTF-8"?>
<svg id="Calque_2" data-name="Calque 2" xmlns="http://www.w3.org/2000/svg" viewBox="0 0 432.82 128.97">
  <defs>
    <style>
      .cls-1 {
        fill: none;
      }

      .cls-2 {
        fill: #aaa;
      }

      .cls-3 {
        fill: #484847;
      }

      .cls-4 {
        fill: #c8c8c8;
      }
    </style>
  </defs>
  <g id="Calque_1-2" data-name="Calque 1">
    <g>
      <rect class="cls-1" width="432.82" height="128.97"/>
      <g>
        <g>
          <path class="cls-2" d="M48.76,70c5.79,6.91,8.94,20.69,8.22,30-11.34,10.27-27.32,13.6-42.2,10.66,24.3-1.2,33.08-24.82,33.97-40.66Z"/>
          <path class="cls-2" d="M113.05,50.26h-11.24c-12.77.05-24.3,8.36-29.09,20.16,0-.04.01-.07.01-.11,1.25-10.06-.84-20.67-5.97-29.41,9.83-5.67,21.54-4.39,30.93,7.11.27.35.67.57,1.1.63l14.25,1.63Z"/>
        </g>
        <g>
          <path class="cls-2" d="M271.91,49.19c-2.48,2.47-3.89,5.81-3.89,9.31v51.28h12.17V41.02l-8.28,8.17Z"/>
          <path class="cls-2" d="M300.91,43.08c-1.34-1.31-2.96-1.99-4.88-1.99s-3.54.68-4.88,1.99c-1.32,1.34-1.99,2.93-1.99,4.78s.67,3.54,1.99,4.88c1.34,1.32,2.96,1.99,4.88,1.99s3.54-.67,4.88-1.99c1.32-1.34,1.99-2.96,1.99-4.88s-.67-3.44-1.99-4.78ZM290.17,59.1v50.68h12.17v-50.68h-12.17Z"/>
          <path class="cls-2" d="M357.91,71.91c-2.29-3.83-5.38-6.89-9.28-9.15-3.9-2.26-8.07-3.39-12.53-3.39-5.44,0-10.33,1.6-14.67,4.82v-23.23l-6.54,6.47c-2.5,2.47-3.9,5.83-3.9,9.34l-.04,28.49c0,4.45,1.14,8.5,3.43,12.16,2.29,3.78,5.37,6.76,9.23,8.95,3.83,2.19,8.23,3.32,12.63,3.3,4.53-.03,8.68-1.17,12.49-3.43,3.83-2.23,6.89-5.28,9.15-9.15,2.26-3.88,3.39-8.07,3.39-12.59s-1.12-8.71-3.35-12.62ZM348.25,91.5c-1.3,2.16-3.01,3.86-5.14,5.1-2.13,1.24-4.48,1.85-7.01,1.85s-4.8-.61-6.96-1.85c-2.17-1.24-3.88-2.93-5.1-5.06-1.24-2.13-1.87-4.47-1.87-7.01s.63-4.88,1.87-7.05c1.23-2.16,2.91-3.86,5.06-5.1,2.13-1.24,4.46-1.85,7-1.85s4.89.61,7.05,1.85c2.17,1.3,3.88,3.03,5.1,5.16,1.24,2.13,1.87,4.46,1.87,7s-.63,4.8-1.87,6.97Z"/>
          <path class="cls-2" d="M392.89,58.45c-4.45,0-8.59,1.09-12.42,3.25-3.96,2.23-7.07,5.21-9.33,8.96-2.26,3.75-3.39,7.81-3.39,12.21l.08,26.92h10.86l-.2-25.26c0-2.72.7-5.16,2.06-7.33,1.3-2.22,3.07-4,5.34-5.33,2.26-1.34,4.67-2.01,7.26-2.01.31,0,1.02.07,2.15.2v-11.42l-2.43-.2Z"/>
          <path class="cls-2" d="M413.56,43.08c-1.34-1.31-2.96-1.99-4.88-1.99s-3.54.68-4.87,1.99c-1.34,1.34-2.01,2.93-2.01,4.78s.67,3.54,2.01,4.88c1.32,1.32,2.96,1.99,4.87,1.99s3.54-.67,4.88-1.99c1.32-1.34,1.99-2.96,1.99-4.88s-.67-3.44-1.99-4.78ZM402.84,59.1v50.68h12.16v-50.68h-12.16Z"/>
          <path class="cls-2" d="M259.73,77.6c-1.13-4.29-3.3-8.03-6.5-11.22l-7.95,7.95c1.8,1.78,3.03,3.86,3.68,6.23.66,2.36.66,4.74,0,7.15-.65,2.41-1.88,4.5-3.68,6.3-1.78,1.8-3.88,3.01-6.26,3.64-2.38.64-4.78.63-7.19-.03-2.4-.66-4.48-1.85-6.23-3.61l-7.95,7.95c3.19,3.19,6.96,5.35,11.29,6.5,4.34,1.13,8.67,1.12,12.99-.07,4.29-1.05,8.06-3.19,11.29-6.43,3.19-3.19,5.37-6.96,6.5-11.29,1.14-4.34,1.14-8.68,0-13.06Z"/>
        </g>
        <g>
          <path class="cls-3" d="M155.8,69.96c-2.66-3.9-5.88-6.69-9.65-8.41-3.78-1.7-7.43-2.55-10.96-2.55-5.2,0-9.97,1.49-14.29,4.46-4.34,2.97-7.43,6.87-9.28,11.7-1.12,2.97-1.67,5.94-1.67,8.91,0,5.07,1.48,9.81,4.45,14.21,2.66,3.96,5.87,6.79,9.62,8.49,3.74,1.7,7.4,2.55,11,2.55,4.27,0,8.28-1.02,12.06-3.05,3.78-2.05,6.82-4.84,9.1-8.36l-10.12-3.89c-1.37,1.55-3.01,2.73-4.96,3.57-1.95.84-3.97,1.25-6.08,1.25-1.87,0-3.6-.31-5.2-.93-1.98-.74-3.72-1.87-5.2-3.39-1.49-1.52-2.61-3.29-3.35-5.34l38.43-1.02v-.1l.18.1c.18-1.3.28-2.63.28-3.99,0-5.07-1.45-9.81-4.36-14.21ZM121.19,79.52l.18-.56c1.11-2.91,2.94-5.2,5.48-6.87s5.31-2.51,8.35-2.51c1.85,0,3.58.32,5.2.93,1.98.74,3.69,1.84,5.14,3.29,1.46,1.46,2.52,3.15,3.21,5.06l-27.56.66Z"/>
          <path class="cls-3" d="M180.49,98.73l24.23-31.92v-7.25h-38.42v10.78h21.98l-23.48,30.81v8.64h40.85v-11.05h-25.16Z"/>
          <path class="cls-3" d="M217.66,66.38c-3.19,3.19-5.36,6.96-6.5,11.29-1.14,4.33-1.14,8.64,0,12.93,1.09,4.33,3.26,8.12,6.5,11.36l7.94-7.94c-1.79-1.79-3.01-3.88-3.64-6.27-.63-2.38-.62-4.78.03-7.19.66-2.41,1.86-4.49,3.61-6.24,1.79-1.79,3.87-3.02,6.24-3.68.92-.26,1.85-.4,2.77-.47,1.25-.07,2.49.02,3.75.32.22.04.43.1.63.15,2.41.66,4.51,1.88,6.3,3.68l7.94-7.94c-1.86-1.86-3.94-3.37-6.24-4.53-1.56-.82-3.24-1.47-5.02-1.94-2.48-.67-4.97-.96-7.44-.88-1.87.05-3.74.31-5.59.78-4.33,1.18-8.1,3.37-11.29,6.56Z"/>
          <path class="cls-3" d="M136.48,40.51c-3.18-.01-6.24,1.23-8.49,3.49l-6.24,6.24h21.66c1.82.01,3.56-.7,4.85-1.99l7.68-7.68-19.45-.07Z"/>
          <path class="cls-3" d="M106.95,58.63l-.91-.07-1.3-.11c-4.46,0-8.6,1.09-12.43,3.25-3.96,2.23-7.07,5.21-9.33,8.96-1.2,1.99-2.09,4.08-2.63,6.26-.5,1.91-.75,3.89-.75,5.95v2.06l.08,24.85h10.86l-.18-25.26c0-2.72.68-5.16,2.04-7.33,1.31-2.22,3.08-4,5.34-5.33,2.26-1.34,4.7-2.01,7.29-2.01.31,0,1.02.07,2.13.2v-11.42h-.21Z"/>
        </g>
        <path class="cls-3" d="M73.08,64.49c.08,13.54-5.95,26.57-16.1,35.58.71-9.34-2.41-23.14-8.22-30.07,1.4-10.81,8.11-23.78,18.01-29.11,4.15,7.12,6.31,15.32,6.32,23.6Z"/>
        <path class="cls-4" d="M66.77,40.89c-10.25,5.79-16.36,17.82-18.01,29.11-5.98-6.61-11.72-11.58-15.57-14.86-8.31-6.65-12.05-11.89-13.76-22.26-.63-3.41-1.49-10.79-2.16-14.83,19.41-3.7,39.74,5.68,49.5,22.85Z"/>
      </g>
    </g>
  </g>
</svg>