<?xml version="1.0" encoding="UTF-8"?>
<svg id="Calque_2" data-name="Calque 2" xmlns="http://www.w3.org/2000/svg" viewBox="0 0 226.77 226.77">
  <defs>
    <style>
      .cls-1 {
        fill: none;
      }

      .cls-2 {
        fill: #c9c7c7;
      }

      .cls-3 {
        fill: #a09e9e;
      }

      .cls-4 {
        fill: #434343;
      }
    </style>
  </defs>
  <g id="Calque_1-2" data-name="Calque 1">
    <g>
      <g>
        <g>
          <path class="cls-3" d="M95.53,121.7c9.05,10.8,13.95,32.3,12.84,46.84-17.71,16.03-42.66,21.24-65.89,16.65,37.94-1.88,51.65-38.75,53.04-63.49Z"/>
          <path class="cls-3" d="M195.91,90.87h-17.54c-19.93.08-37.94,13.05-45.43,31.47,0-.07.02-.11.02-.17,1.95-15.71-1.32-32.27-9.32-45.93,15.35-8.86,33.63-6.86,48.3,11.1.41.54,1.05.89,1.72.98l22.24,2.55Z"/>
        </g>
        <path class="cls-4" d="M133.51,113.1c.12,21.15-9.28,41.49-25.14,55.55,1.11-14.58-3.76-36.12-12.84-46.95,2.18-16.88,12.67-37.12,28.12-45.45,6.48,11.12,9.85,23.92,9.86,36.85Z"/>
        <path class="cls-2" d="M123.65,76.25c-16,9.03-25.55,27.83-28.12,45.45-9.34-10.32-18.3-18.07-24.31-23.2-12.97-10.38-18.82-18.57-21.48-34.76-.98-5.32-2.33-16.84-3.37-23.16,30.31-5.78,62.05,8.87,77.29,35.67Z"/>
      </g>
      <rect class="cls-1" width="226.77" height="226.77"/>
    </g>
  </g>
</svg>