<?xml version="1.0" encoding="UTF-8"?>
<svg id="Calque_2" data-name="Calque 2" xmlns="http://www.w3.org/2000/svg" viewBox="0 0 226.77 226.77">
  <defs>
    <style>
      .cls-1 {
        fill: none;
      }

      .cls-2 {
        fill: #232321;
      }
    </style>
  </defs>
  <g id="Calque_1-2" data-name="Calque 1">
    <g>
      <rect class="cls-1" width="226.77" height="226.77"/>
      <g>
        <g>
          <path class="cls-2" d="M91.35,129c11.41,19.14,8.54,43.84,8.54,43.84-17.23,12.79-39.78,16.71-60.89,12.56,34.45-1.72,48.93-32.26,52.35-56.39Z"/>
          <path class="cls-2" d="M129.47,122.54s.02-.08.03-.12v.06s-.02.05-.03.06Z"/>
          <path class="cls-2" d="M192.45,91.06h-17.54c-16.21.06-31.14,8.65-40.2,21.75-.08-13.62-3.67-26.91-10.35-38.5,14.41-6.26,30.76-3.14,44.12,13.21.42.55,1.05.89,1.73.98l22.24,2.55Z"/>
        </g>
        <g>
          <path class="cls-2" d="M130.05,113.28c.14,21.06-9.29,41.52-25.16,55.56,3.84-62.77-51.27-59.72-58.64-104.93-.98-5.33-2.32-16.85-3.37-23.18,43.59-9.2,88.31,27.75,87.17,72.54Z"/>
          <path class="cls-2" d="M94.53,125.29c.61.94,1.2,1.92,1.75,2.94-.55-1.03-1.12-2-1.75-2.94ZM94.53,125.29c.61.94,1.2,1.92,1.75,2.94-.55-1.03-1.12-2-1.75-2.94Z"/>
        </g>
      </g>
    </g>
  </g>
</svg>